<svg width="169" height="161" viewBox="0 0 169 161" fill="none" xmlns="http://www.w3.org/2000/svg">
<g id="Frame 94">
<g id="Group 4">
<path id="Ellipse 4" d="M65.7523 115.296C60.1279 115.296 55.5684 119.855 55.5684 125.48C55.5684 128.459 56.8472 132.138 58.8857 134.001H72.619C74.6575 132.138 75.9363 128.459 75.9363 125.48C75.9363 119.855 71.3768 115.296 65.7523 115.296Z" fill="white"/>
<path id="Ellipse 6" d="M121.752 115.296C116.128 115.296 111.568 119.855 111.568 125.48C111.568 128.459 112.847 132.138 114.886 134.001H128.619C130.657 132.138 131.936 128.459 131.936 125.48C131.936 119.855 127.377 115.296 121.752 115.296Z" fill="white"/>
<g id="Vector 13">
<path d="M160.802 49.9485H29.2595L43.6868 33.8239H63.2061L72.5414 19.3966L95.4553 24.4886L111.58 15.1533L130.25 33.8239H144.678L160.802 49.9485Z" stroke="white" stroke-width="2"/>
<path d="M167.592 58.4351H19.0756V70.3164H25.0162L46.2328 124.631H49.6275C49.6275 124.631 49.6275 110.204 64.9034 109.355C80.1793 108.506 81.8767 124.631 81.8767 124.631H105.639C105.639 124.631 105.639 109.355 121.764 109.355C137.888 109.355 137.888 124.631 137.888 124.631H141.283L163.348 70.3164H167.592V58.4351Z" stroke="white" stroke-width="2"/>
<path d="M8.04297 133.118V140.755H17.3783V145.847H33.5029V141.604H51.3248V145.847H68.298V141.604H85.2713V145.847H102.245V141.604H119.218V145.847H137.04V140.755H154.013V145.847H170.986V140.755H179.473V133.118H8.04297Z" stroke="white" stroke-width="2"/>
</g>
</g>
</g>
</svg>
