<svg width="161" height="161" viewBox="0 0 161 161" fill="none" xmlns="http://www.w3.org/2000/svg">
<g id="Frame 92">
<path id="Vector 11" d="M41.0723 151.286L43.817 141.371M119.929 151.286L117.317 141.371M43.817 141.371L102.265 84.2349M43.817 141.371L59.6344 84.2349M102.265 84.2349L117.317 141.371M102.265 84.2349L92.014 45.3214M117.317 141.371L59.6344 84.2349M59.6344 84.2349L70.7502 44.0821M92.014 45.3214L82.7088 10H80.1854L70.7502 44.0821M92.014 45.3214C92.014 45.3214 75.9614 69.0382 65.6757 84.2349C76.7621 84.2349 94.0643 84.2349 94.0643 84.2349L70.7502 44.0821" stroke="#DA291C" stroke-width="2"/>
<path id="Vector 14" d="M51 84.5H65.5097H93.8983H102.099H110.931" stroke="#0F0E0E" stroke-width="2"/>
<path id="Vector 13" d="M63.1523 40.3643H80.8163H98.4803" stroke="#0F0E0E" stroke-width="2"/>
<path id="Vector 12" d="M79.7795 10H82.1732M72 10H91" stroke="#0F0E0E" stroke-width="2"/>
</g>
</svg>
