<svg width="138" height="161" viewBox="0 0 138 161" fill="none" xmlns="http://www.w3.org/2000/svg">
<g id="Frame 97">
<path id="Vector 16" d="M118.175 96.5351H107.742V79.1471L83.7852 96.5351V79.1471L57.8964 96.5351V79.1471L33.5532 96.5351V79.1471L8.05078 94.6031V152.95H88.422M118.175 96.5351L123.198 24.2783H137.881L143.291 96.5351M118.175 96.5351H143.291M143.291 96.5351H152.951V152.95H107.742M88.422 152.95V118.946H107.742V152.95M88.422 152.95H107.742" stroke="white" stroke-width="2"/>
<path id="Vector 18" d="M89.9668 8.0498L98.4676 13.8458L106.968 8.0498L115.083 13.8458L123.197 8.0498L130.539 13.8458" stroke="white" stroke-width="2"/>
<g id="Vector 17">
<path d="M33.5523 123.97H23.5059V138.653H33.5523V123.97Z" fill="white"/>
<path d="M53.2587 123.97H43.2123V138.653H53.2587V123.97Z" fill="white"/>
<path d="M73.3515 123.97H63.3051V138.653H73.3515V123.97Z" fill="white"/>
</g>
</g>
</svg>
