<svg width="161" height="161" viewBox="0 0 161 161" fill="none" xmlns="http://www.w3.org/2000/svg">
<g id="Frame 93">
<path id="Vector 12" d="M93.8937 61.011L52.7337 154.56L93.8937 110.384M93.8937 61.011V110.384M93.8937 61.011L127.867 46.7187H36.4004L72.1704 61.011M93.8937 61.011V30.4774M93.8937 110.384L110.88 154.56L72.1704 110.384V61.011M93.8937 110.384L72.1704 61.011M72.1704 61.011L71.6804 30.4774M71.6804 30.4774V6.44043H93.8937V30.4774M71.6804 30.4774L46.2004 18.1341H117.414L93.8937 30.4774" stroke="#DA291C" stroke-width="2"/>
<path id="Vector 15" d="M12.8789 154.561H52.7322H110.879H148.119" stroke="#0F0E0E" stroke-width="2"/>
<path id="Vector 14" d="M46.1992 18.1338V33.0757M117.413 18.1338V33.0757" stroke="#0F0E0E" stroke-width="2"/>
<path id="Vector 13" d="M36.4004 46.7188V67.5075M127.867 46.7188V67.5075" stroke="#0F0E0E" stroke-width="2"/>
</g>
</svg>
