<svg width="124" height="124" viewBox="0 0 124 124" fill="none" xmlns="http://www.w3.org/2000/svg">
<g id="Frame 91">
<g id="Group 3">
<circle id="Ellipse 2" cx="53.7916" cy="80.0563" r="15.4147" stroke="black" stroke-width="2"/>
<path id="Vector 10" d="M44.4902 92.6409L44.4902 107.961L53.7919 104.678L62.5464 107.961V93.188" stroke="#0F0E0E" stroke-width="2"/>
<path id="Star 1" d="M53.7927 72.3493L55.2986 76.9838L55.5231 77.6748H56.2496H61.1226L57.1803 80.539L56.5925 80.9661L56.817 81.6571L58.3228 86.2915L54.3805 83.4273L53.7927 83.0002L53.2049 83.4273L49.2626 86.2915L50.7685 81.6571L50.993 80.9661L50.4052 80.539L46.4629 77.6748H51.3358H52.0624L52.2869 76.9838L53.7927 72.3493Z" stroke="#DA291C" stroke-width="2"/>
<path id="Rectangle 18" d="M95.4701 116.263H11.0195V24.6784L29.0194 7.7373H95.4701V41.2081V116.263Z" stroke="#0F0E0E" stroke-width="2"/>
<circle id="Ellipse 3" cx="96.4699" cy="24.2463" r="16.509" fill="#DA291C" stroke="#DA291C" stroke-width="2"/>
<path id="Rectangle 19" d="M92.4807 22.4453L89.3577 25.5683L86.3947 22.6052L95.9236 13.0763L106 23.1524L103.584 25.5683L100.461 22.4453L98.7537 20.7382V23.1524V35.2841H94.1878V23.1524V20.7382L92.4807 22.4453Z" stroke="white" stroke-width="2"/>
</g>
</g>
</svg>
