<svg width="152" height="152" viewBox="0 0 152 152" fill="none" xmlns="http://www.w3.org/2000/svg">
<g id="Frame 441">
<path id="Rectangle 100" d="M18 10C18 4.47715 22.4772 0 28 0H124C129.523 0 134 4.47715 134 10V16H18V10Z" fill="#0F0E0E"/>
<rect id="Rectangle 87" x="18.2578" y="0.5" width="115.486" height="89.9159" rx="9.5" stroke="#0F0E0E"/>
<rect id="Rectangle 90" x="25.5703" y="58.2432" width="12.0748" height="22.729" fill="url(#paint0_linear_824_5214)"/>
<rect id="Rectangle 91" x="40.4863" y="48.2988" width="12.0748" height="32.6729" fill="url(#paint1_linear_824_5214)"/>
<rect id="Rectangle 92" x="56.1113" y="30.542" width="12.0748" height="50.4299" fill="url(#paint2_linear_824_5214)"/>
<path id="Rectangle 88" d="M0.5 35.626C0.5 24.8564 9.23045 16.126 20 16.126H132C142.77 16.126 151.5 24.8564 151.5 35.626V101.458C151.5 112.227 142.77 120.958 132 120.958H20C9.23044 120.958 0.5 112.227 0.5 101.458V35.626Z" stroke="#0F0E0E"/>
<path id="Rectangle 89" d="M0.5 97.0977H151.5V101.457C151.5 112.227 142.77 120.957 132 120.957H20C9.23044 120.957 0.5 112.227 0.5 101.457V97.0977Z" stroke="#0F0E0E"/>
<g id="Ellipse 15">
<mask id="path-8-inside-1_824_5214" fill="white">
<path d="M126.429 53.2712C126.429 58.75 124.805 64.1057 121.761 68.6611C118.717 73.2165 114.391 76.767 109.329 78.8636C104.267 80.9602 98.6975 81.5088 93.3241 80.4399C87.9506 79.3711 83.0148 76.7328 79.1408 72.8588C75.2667 68.9847 72.6285 64.0489 71.5596 58.6754C70.4908 53.302 71.0393 47.7322 73.136 42.6706C75.2326 37.6089 78.7831 33.2826 83.3385 30.2388C87.8939 27.1949 93.2496 25.5703 98.7283 25.5703V53.2712H126.429Z"/>
</mask>
<path d="M126.429 53.2712C126.429 58.75 124.805 64.1057 121.761 68.6611C118.717 73.2165 114.391 76.767 109.329 78.8636C104.267 80.9602 98.6975 81.5088 93.3241 80.4399C87.9506 79.3711 83.0148 76.7328 79.1408 72.8588C75.2667 68.9847 72.6285 64.0489 71.5596 58.6754C70.4908 53.302 71.0393 47.7322 73.136 42.6706C75.2326 37.6089 78.7831 33.2826 83.3385 30.2388C87.8939 27.1949 93.2496 25.5703 98.7283 25.5703V53.2712H126.429Z" stroke="#0F0E0E" stroke-width="2" mask="url(#path-8-inside-1_824_5214)"/>
</g>
<path id="Ellipse 16" d="M101.215 25.5703C104.526 25.5703 107.805 26.2225 110.864 27.4897C113.923 28.7569 116.703 30.6142 119.044 32.9556C121.386 35.297 123.243 38.0767 124.51 41.136C125.777 44.1952 126.43 47.474 126.43 50.7853L101.215 50.7853L101.215 25.5703Z" fill="#DA291C"/>
<rect id="Rectangle 93" x="26.2012" y="7.60254" width="4.68224" height="4.68224" stroke="white"/>
<rect id="Rectangle 96" x="65.3457" y="106.542" width="5.68224" height="5.68224" fill="#DA291C"/>
<rect id="Rectangle 94" x="34.0137" y="7.60254" width="4.68224" height="4.68224" stroke="white"/>
<rect id="Rectangle 97" x="73.1582" y="106.542" width="5.68224" height="5.68224" fill="#DA291C"/>
<rect id="Rectangle 95" x="41.8262" y="7.60254" width="4.68224" height="4.68224" stroke="white"/>
<rect id="Rectangle 98" x="80.9727" y="106.542" width="5.68224" height="5.68224" fill="#DA291C"/>
<path id="Rectangle 99" d="M28.2012 151.402C28.2012 140.633 36.9316 131.902 47.7012 131.902H104.299C115.069 131.902 123.799 140.633 123.799 151.402V151.5H28.2012V151.402Z" stroke="#0F0E0E"/>
<path id="Vector 32" d="M51.4961 131.757L55.0475 121.103" stroke="#0F0E0E"/>
<path id="Vector 33" d="M100.859 131.757L97.308 121.103" stroke="#0F0E0E"/>
</g>
<defs>
<linearGradient id="paint0_linear_824_5214" x1="32.0017" y1="80.9998" x2="32.0017" y2="55.5" gradientUnits="userSpaceOnUse">
<stop stop-color="#DA291C"/>
<stop offset="1" stop-color="#DA291C" stop-opacity="0"/>
</linearGradient>
<linearGradient id="paint1_linear_824_5214" x1="46.9176" y1="81.0114" x2="46.9176" y2="45" gradientUnits="userSpaceOnUse">
<stop stop-color="#DA291C"/>
<stop offset="1" stop-color="#DA291C" stop-opacity="0"/>
</linearGradient>
<linearGradient id="paint2_linear_824_5214" x1="62.5415" y1="81.0332" x2="62.5415" y2="24" gradientUnits="userSpaceOnUse">
<stop stop-color="#DA291C"/>
<stop offset="1" stop-color="#DA291C" stop-opacity="0"/>
</linearGradient>
</defs>
</svg>
