<svg width="153" height="124" viewBox="0 0 153 124" fill="none" xmlns="http://www.w3.org/2000/svg">
<g id="Frame 95">
<g id="Group 5">
<path id="Vector 14" d="M9.46094 105.868H163.401M163.401 95.2457V77.3211H146.595M112.984 45.4551V72.0101L118.362 77.3211H146.595M97.5227 13.5891V44.7912M97.5227 89.2709V44.7912M71.3058 96.5735V36.8247H89.456L97.5227 44.7912M97.5227 44.7912H112.984L129.117 52.0939L146.595 77.3211" stroke="black" stroke-width="2"/>
<path id="Ellipse 7" d="M32.6617 106.532C32.6617 111.834 28.3057 116.154 22.906 116.154C17.5063 116.154 13.1504 111.834 13.1504 106.532C13.1504 101.229 17.5063 96.9097 22.906 96.9097C28.3057 96.9097 32.6617 101.229 32.6617 106.532Z" fill="#DA291C" stroke="black" stroke-width="2"/>
<path id="Ellipse 8" d="M63.5835 106.532C63.5835 111.834 59.2276 116.154 53.8279 116.154C48.4282 116.154 44.0723 111.834 44.0723 106.532C44.0723 101.229 48.4282 96.9097 53.8279 96.9097C59.2276 96.9097 63.5835 101.229 63.5835 106.532Z" fill="#DA291C" stroke="black" stroke-width="2"/>
<path id="Ellipse 9" d="M155.007 106.532C155.007 111.834 150.651 116.154 145.252 116.154C139.852 116.154 135.496 111.834 135.496 106.532C135.496 101.229 139.852 96.9097 145.252 96.9097C150.651 96.9097 155.007 101.229 155.007 106.532Z" fill="#DA291C" stroke="black" stroke-width="2"/>
</g>
</g>
</svg>
