<svg xmlns="http://www.w3.org/2000/svg" viewBox="0 0 169.82 19.61"><defs><style>.cls-1{fill:#da291c;}</style></defs><g id="Layer_2" data-name="Layer 2"><g id="logo"><polygon points="0 19.43 0 1.43 0 0.22 21.21 0.22 21.21 4.49 4.69 4.49 4.69 7.76 18.9 7.76 18.9 11.88 4.69 11.88 4.69 19.43 0 19.43 0 19.43"/><path d="M70.92,19.43V12.88a1,1,0,0,0-.5-.84,5.21,5.21,0,0,0-1.86-.16H58.91v7.55H54.22V.22H68.85c2.53,0,4.28.38,5.48,1.55h0c1.18,1.2,1.34,2.78,1.34,4.42h0V7.55A4.5,4.5,0,0,1,74.09,11l.17.09a1.6,1.6,0,0,1,.55.42,3.42,3.42,0,0,1,.66,2.47h0v5.5ZM68.39,7.75a5.81,5.81,0,0,0,2.11-.16A1,1,0,0,0,71,6.75V5.49a1,1,0,0,0-.49-.83A6.87,6.87,0,0,0,68,4.49H58.91V7.75h9.48Z"/><path d="M82.54,19.43V4.49H78.11V.22h17.6V4.49H87.22V19.43Z"/><path d="M156.64,19.43V4.49h-4.42V.22h17.6V4.49h-8.49V19.43Z"/><polygon points="98.03 19.43 98.03 1.43 98.03 0.22 102.72 0.22 102.72 19.43 98.03 19.43 98.03 19.43"/><polygon points="130.99 19.43 130.99 1.43 130.99 0.22 149.9 0.22 149.9 4.49 135.68 4.49 135.68 7.76 145.56 7.76 145.56 11.88 135.68 11.88 135.68 15.16 149.99 15.16 149.99 19.43 130.99 19.43 130.99 19.43"/><path d="M111,19.43h-4.71V.22h15.15a6.77,6.77,0,0,1,4.53,1.65s1.8,1.5,1.8,5.18V19.43H123V6.73s.06-1.3-.39-1.76a1.5,1.5,0,0,0-1.13-.49H110.94Z"/><path d="M167.5,19.41a2.32,2.32,0,1,1,2.32-2.32A2.32,2.32,0,0,1,167.5,19.41Zm0-4.38a2.06,2.06,0,1,0,2.06,2.06A2,2,0,0,0,167.49,15Zm-.86.71h1.15c.39,0,.78.08.81.65a.64.64,0,0,1-.34.64c.27.17.27.21.31.66s0,.39.12.61h-.39l0-.32c-.05-.31.09-.78-.44-.78H167v1.1h-.33ZM167,16v.88h.82c.22,0,.44-.06.47-.39S168,16,167.78,16Z"/><rect class="cls-1" x="23.28" y="7.25" width="7.79" height="5.12"/><rect class="cls-1" x="33.19" width="7.64" height="5.12"/><rect class="cls-1" x="33.19" y="14.5" width="7.64" height="5.12"/><rect class="cls-1" x="42.96" y="7.25" width="7.81" height="5.12"/><path class="cls-1" d="M26.47,0c-1.62.43-2.9,2.24-3.19,4.55v.57h7.78V0Z"/><path class="cls-1" d="M23.28,14.5v.63c.28,2.21,1.47,4,3,4.48h4.79V14.5Z"/><path class="cls-1" d="M50.77,5.12V4.54C50.47,2.24,49.2.43,47.57,0H43V5.12Z"/><path class="cls-1" d="M47.78,19.61c1.52-.51,2.7-2.27,3-4.47V14.5H43v5.11Z"/></g></g></svg>