<svg xmlns="http://www.w3.org/2000/svg" width="196" height="24" viewBox="0 0 196 24" fill="none">
  <g clip-path="url(#clip0_44_217)">
    <path d="M127.087 23.1242H121.692V0.879929L139.043 0.893983C139.043 0.893983 142.22 0.77516 144.241 2.79132C144.241 2.79132 146.303 4.53151 146.303 8.78488V23.1203H140.922V8.41435C140.922 8.41435 140.988 6.91437 140.484 6.38797C140.484 6.38797 140.036 5.81685 139.185 5.81685H127.075L127.086 23.1165L127.087 23.1242ZM150.053 23.1203V0.896538H171.704V5.83985L155.415 5.83857V9.61792H166.731V14.3913H155.415V18.1834H171.805V23.128H150.04L150.053 23.1203ZM112.291 23.1203V0.896538H117.663V23.128H112.291V23.1203ZM179.437 23.1203V5.83346H174.366V0.89015H194.537V5.83346H184.813V23.1203H179.441H179.437ZM94.5482 23.1203V5.83346H89.477V0.89015H109.648V5.83346H99.9241V23.1203H94.552H94.5482ZM78.3481 9.60259C79.6608 9.59236 80.4462 9.60386 80.7623 9.40966C80.7623 9.40966 81.3137 9.10174 81.32 8.43991L81.3213 6.98592C81.3213 6.32153 80.7636 6.01616 80.7636 6.01616C80.345 5.78618 79.6355 5.82962 77.9498 5.82835H67.4836V9.60259H78.5884H78.3481ZM81.2429 23.1203V15.5335C81.2429 14.8513 80.6789 14.5663 80.6789 14.5663C80.4247 14.4066 79.6621 14.3772 78.5404 14.3772H78.8009H67.4836V23.1191H62.1115V0.895261H78.8806C81.7766 0.904204 83.776 1.33478 85.1532 2.68528C86.5063 4.07794 86.6859 5.8999 86.6935 7.79596V9.37899C86.7112 10.9901 85.8727 12.4595 84.8737 13.3155L85.0748 13.4164C85.482 13.6157 85.7058 13.8981 85.7058 13.8981C86.4646 14.8794 86.4557 15.7226 86.4545 16.7601V23.1242H81.2442L81.2429 23.1203ZM0.00252928 0.888872V23.114H5.37471V14.3798H21.6506V9.60386H5.37471V5.82707H24.2937V0.883762H0L0.00252928 0.888872ZM192.722 19.1889V20.2098H193.663C193.917 20.2098 194.164 20.1395 194.202 19.7575C194.256 19.2516 193.893 19.1889 193.663 19.1889H192.722ZM192.344 18.8529H193.654C194.109 18.8529 194.549 18.9398 194.587 19.6093C194.603 19.9926 194.487 20.1319 194.202 20.3504C194.504 20.5446 194.512 20.5918 194.557 21.1042C194.587 21.4951 194.533 21.5578 194.696 21.8146H194.248L194.188 21.4402C194.125 21.0888 194.295 20.5458 193.686 20.5458H192.722V21.8146H192.344V18.8529ZM193.33 18.0352C193.021 18.0355 192.715 18.0976 192.43 18.2177C192.145 18.3379 191.886 18.5138 191.669 18.7353C191.451 18.9569 191.279 19.2197 191.162 19.5087C191.045 19.7977 190.986 20.1072 190.988 20.4193C190.988 21.7277 192.038 22.7958 193.34 22.7881C193.649 22.7876 193.955 22.7255 194.24 22.6055C194.525 22.4856 194.784 22.31 195.002 22.0889C195.22 21.8678 195.393 21.6055 195.511 21.317C195.629 21.0284 195.689 20.7193 195.688 20.4072C195.688 20.0951 195.626 19.7862 195.507 19.4981C195.389 19.21 195.215 18.9484 194.996 18.7281C194.777 18.5078 194.518 18.3333 194.232 18.2144C193.946 18.0955 193.641 18.0346 193.332 18.0352M193.339 23.0973C192.99 23.098 192.644 23.029 192.321 22.8943C191.998 22.7596 191.704 22.5619 191.457 22.3124C191.21 22.0629 191.014 21.7666 190.88 21.4404C190.747 21.1143 190.678 20.7647 190.678 20.4117C190.678 20.0585 190.746 19.7087 190.88 19.3823C191.013 19.056 191.209 18.7594 191.457 18.5097C191.704 18.26 191.997 18.062 192.32 17.9271C192.643 17.7921 192.99 17.723 193.339 17.7235C194.806 17.7235 196 18.9321 196 20.413C195.998 21.125 195.717 21.8074 195.219 22.3106C194.72 22.8138 194.044 23.0967 193.339 23.0973Z" fill="#231F20"/>
    <path d="M54.7245 23.3414C56.4697 22.7422 57.828 20.7119 58.1543 18.1591V17.4207H49.2069V23.3414H54.7245ZM58.1555 6.56557V5.89734C57.8128 3.2334 56.3534 1.13546 54.4931 0.641006H49.2082V6.56557H58.1555ZM26.666 17.4219V18.1528C26.9898 20.7081 28.348 22.7422 30.0982 23.3414H35.5868V17.4207H26.666V17.4219ZM30.3271 0.646117C28.4694 1.1393 27.0062 3.23979 26.666 5.90757V6.57068H35.5868V0.647395H30.3271V0.646117ZM58.1618 9.0353H49.2145V14.9586H58.1618V9.0353ZM38.0288 23.3452H46.7814V17.4245H38.0288V23.3452ZM46.7814 0.641006H38.0288V6.56429H46.7814V0.641006ZM26.6736 14.9509H35.5944V9.02764H26.6736V14.9509Z" fill="#EE2E24"/>
  </g>
  <defs>
    <clipPath id="clip0_44_217">
      <rect width="196" height="24" fill="white"/>
    </clipPath>
  </defs>
</svg>