<svg width="124" height="124" viewBox="0 0 124 124" fill="none" xmlns="http://www.w3.org/2000/svg">
<path d="M84.7179 24.2345L69.1423 8.67969M84.7179 24.2345H69.1423V8.67969M84.7179 24.2345V56.5684M69.1423 8.67969H14.8789V116.56H84.7179V88.9625M26.435 41.7963L29.9521 45.3087L34.9765 38.7857M45.0252 40.7928H59.596M45.0252 59.86H71.6545M45.0252 78.9271H59.596M45.0252 98.4961H71.6545M71.6545 98.4961V83.443L84.7179 56.5684M71.6545 98.4961L84.7179 88.9625M84.7179 88.9625L105.82 46.814M92.7569 40.0301L96.7765 31.761C96.7765 31.761 100.294 26.2415 106.323 29.2522C112.352 32.2628 109.84 38.7857 109.84 38.7857L105.82 46.814M92.7569 40.0301L105.82 46.814M92.7569 40.0301L84.7179 56.5684" stroke="#0F0E0E" stroke-width="2" className="svg-elem-1"></path>
<path d="M34.4755 55.3447H25.4316V64.3765H34.4755V55.3447Z" fill="#DA291C" className="svg-elem-2"></path>
<path d="M34.4755 74.4119H25.4316V83.4437H34.4755V74.4119Z" fill="#DA291C" className="svg-elem-3"></path>
<path d="M34.4755 93.9808H25.4316V103.013H34.4755V93.9808Z" fill="#DA291C" className="svg-elem-4"></path>
</svg>