<svg width="102" height="124" viewBox="0 0 102 124" fill="none" xmlns="http://www.w3.org/2000/svg">
<g id="Frame 88">
<path id="Vector 8" d="M84.719 24.2348L69.1434 8.67999M84.719 24.2348H69.1434V8.67999M84.719 24.2348V56.5687M69.1434 8.67999H14.88V116.56H84.719V88.9628M26.4361 41.7966L29.9532 45.309L34.9776 38.786M45.0263 40.7931H59.5971M45.0263 59.8603H71.6556M45.0263 78.9274H59.5971M45.0263 98.4964H71.6556M71.6556 98.4964V83.4433L84.719 56.5687M71.6556 98.4964L84.719 88.9628M84.719 88.9628L105.821 46.8143M92.758 40.0304L96.7776 31.7613C96.7776 31.7613 100.295 26.2419 106.324 29.2525C112.353 32.2631 109.841 38.786 109.841 38.786L105.821 46.8143M92.758 40.0304L105.821 46.8143M92.758 40.0304L84.719 56.5687" stroke="#0F0E0E" stroke-width="2"/>
<g id="Vector 9">
<path d="M34.4752 55.3444H25.4313V64.3762H34.4752V55.3444Z" fill="#DA291C"/>
<path d="M34.4752 74.4115H25.4313V83.4433H34.4752V74.4115Z" fill="#DA291C"/>
<path d="M34.4752 93.9804H25.4313V103.012H34.4752V93.9804Z" fill="#DA291C"/>
</g>
</g>
</svg>
