<?xml version="1.0" encoding="UTF-8"?><svg id="Layer_2" xmlns="http://www.w3.org/2000/svg" viewBox="0 0 339 339"><defs><style>.cls-1{fill:#da291c;}</style></defs><g id="Layer_2-2"><g id="Layer_1-2"><g id="Layer_2-2"><g id="Layer_1-2-2"><path className="cls-1" d="M0,169.5C0,75.89,75.89,0,169.5,0s169.5,75.89,169.5,169.5-75.89,169.5-169.5,169.5S0,263.11,0,169.5ZM158.91,22.82c-14.2,4.32-28.29,17.37-40,39.3-3.17,5.98-5.97,12.15-8.37,18.48,15.9,3.48,32.08,5.52,48.35,6.08l.02-63.86Zm-68.91,52.18c2.88-7.83,6.29-15.46,10.19-22.84,3.66-6.93,7.89-13.54,12.65-19.77-18.03,7.48-34.4,18.43-48.2,32.23,8.17,4.12,16.65,7.59,25.36,10.38Zm-15.65,83.91c.64-21.53,3.74-42.91,9.23-63.74-11.47-3.67-22.57-8.42-33.15-14.17-16.88,22.66-26.89,49.69-28.86,77.87h52.78v.04h0Zm29.65-58.08c-5,18.98-7.84,38.46-8.48,58.08h63.38v-51c-18.49-.58-36.87-2.95-54.9-7.08Zm76.08,7v51.07h63.35c-.62-19.61-3.45-39.09-8.43-58.07-18.03,4.09-36.42,6.43-54.9,7h-.02Zm-84.52,72.26c.61,19.62,3.44,39.1,8.44,58.08,18.03-4.09,36.42-6.43,54.9-7v-51.08h-63.34Zm84.53,0v51c18.48,.56,36.87,2.9,54.9,7,5-18.98,7.85-38.46,8.48-58.08l-63.38,.08h0Zm-69.53,78.31c2.41,6.33,5.2,12.5,8.37,18.48,11.69,21.93,25.8,35,40,39.3v-63.84c-16.27,.56-32.45,2.6-48.35,6.08l-.02-.02Zm2.33,48.23c-4.76-6.23-9-12.84-12.67-19.77-3.92-7.38-7.33-15.02-10.22-22.86-8.72,2.8-17.21,6.27-25.39,10.38,13.8,13.81,30.19,24.77,48.23,32.25h.05Zm-29.31-62.8c-5.5-20.83-8.6-42.21-9.25-63.74H21.57c1.95,28.2,11.97,55.24,28.86,77.91,10.58-5.75,21.68-10.5,33.15-14.17Zm142.55,62.8c18.03-7.48,34.41-18.43,48.21-32.23-8.17-4.11-16.64-7.59-25.34-10.4-2.88,7.83-6.29,15.46-10.19,22.84-3.67,6.94-7.91,13.56-12.68,19.79Zm-46-54.31v63.86c14.2-4.32,28.29-17.37,40-39.3,3.17-5.98,5.97-12.15,8.37-18.48-15.9-3.48-32.08-5.51-48.35-6.06l-.02-.02h0Zm75.33-8.49c11.46,3.68,22.54,8.42,33.11,14.17,16.88-22.66,26.9-49.68,28.86-77.87h-52.76c-.65,21.52-3.75,42.89-9.25,63.7h.04Zm62-84.92c-1.96-28.2-11.99-55.25-28.89-77.91-10.58,5.74-21.68,10.47-33.15,14.13,5.49,20.83,8.59,42.21,9.25,63.74l52.79,.04h0ZM238.78,52.14c3.9,7.39,7.31,15.03,10.22,22.86,8.7-2.81,17.17-6.28,25.34-10.4-13.8-13.8-30.18-24.74-48.21-32.2,4.76,6.22,8.99,12.82,12.65,19.74Zm-10.34,28.46c-2.4-6.33-5.2-12.5-8.37-18.48-11.69-21.93-25.78-35-40-39.3v63.84c16.27-.56,32.45-2.6,48.35-6.08l.02,.02h0Z"/></g></g></g></g></svg>